<svg width="186.05mm" height="174.7mm" viewBox="0 0 186.05 174.7" xmlns="http://www.w3.org/2000/svg" version="1.1" preserveAspectRatio="xMidYMid meet"><g id="svgGroup" stroke-linecap="round" fill-rule="evenodd" font-size="9pt" stroke="#000" stroke-width="0.25mm" fill="none" style="stroke:#000;stroke-width:0.25mm;fill:none"><path d="M 0 149.8 L 0 159.25 L 3 159.25 L 3 165.25 L 0 165.25 L 0 171.25 L 0 174.7 L 8.55 174.7 L 8.55 171.7 L 14.55 171.7 L 14.55 174.7 L 20.55 174.7 L 20.55 171.7 L 26.55 171.7 L 26.55 174.7 L 32.55 174.7 L 32.55 171.7 L 38.55 171.7 L 38.55 174.7 L 44.55 174.7 L 47.1 174.7 L 47.1 165.25 L 44.1 165.25 L 44.1 159.25 L 47.1 159.25 L 47.1 153.25 L 47.1 149.8 L 38.55 149.8 L 38.55 152.8 L 32.55 152.8 L 32.55 149.8 L 26.55 149.8 L 26.55 152.8 L 20.55 152.8 L 20.55 149.8 L 14.55 149.8 L 14.55 152.8 L 8.55 152.8 L 8.55 149.8 L 2.55 149.8 L 0 149.8 Z" id="front_outsideCutPath" stroke="#FF0000" stroke-width="0.1" style="stroke:#FF0000;stroke-width:0.1" vector-effect="non-scaling-stroke"/><path d="M 27.179 164.131 L 26.776 164.131 L 26.776 162.407 A 1.141 1.141 0 0 0 26.762 162.228 Q 26.748 162.134 26.715 162.059 A 0.48 0.48 0 0 0 26.627 161.92 A 0.455 0.455 0 0 0 26.441 161.801 Q 26.323 161.76 26.163 161.76 Q 25.887 161.76 25.709 161.858 A 0.569 0.569 0 0 0 25.55 161.986 Q 25.372 162.193 25.357 162.645 A 2.586 2.586 0 0 0 25.355 162.733 L 25.355 164.131 L 24.952 164.131 L 24.952 161.466 L 25.28 161.466 L 25.346 161.83 L 25.365 161.83 A 0.817 0.817 0 0 1 25.685 161.539 A 0.983 0.983 0 0 1 25.713 161.525 Q 25.937 161.417 26.211 161.417 A 1.594 1.594 0 0 1 26.483 161.439 Q 26.767 161.488 26.936 161.649 Q 27.179 161.882 27.179 162.392 L 27.179 164.131 Z M 19.425 161.466 L 19.425 161.779 L 18.746 161.779 L 18.746 164.131 L 18.343 164.131 L 18.343 161.779 L 17.866 161.779 L 17.866 161.597 L 18.343 161.451 L 18.343 161.303 Q 18.343 160.455 18.982 160.339 A 1.227 1.227 0 0 1 19.201 160.32 A 1.3 1.3 0 0 1 19.385 160.334 Q 19.474 160.347 19.574 160.372 A 2.613 2.613 0 0 1 19.697 160.406 L 19.593 160.729 A 1.96 1.96 0 0 0 19.44 160.686 Q 19.363 160.668 19.295 160.66 A 0.868 0.868 0 0 0 19.194 160.654 Q 18.965 160.654 18.856 160.806 Q 18.746 160.958 18.746 161.293 L 18.746 161.466 L 19.425 161.466 Z M 29.234 163.798 L 29.234 164.107 Q 29.168 164.138 29.041 164.159 Q 28.921 164.178 28.825 164.179 A 1.034 1.034 0 0 1 28.811 164.179 A 1.054 1.054 0 0 1 28.5 164.138 Q 28.159 164.032 28.069 163.661 A 1.269 1.269 0 0 1 28.038 163.365 L 28.038 161.779 L 27.656 161.779 L 27.656 161.585 L 28.038 161.417 L 28.208 160.848 L 28.441 160.848 L 28.441 161.466 L 29.215 161.466 L 29.215 161.779 L 28.441 161.779 L 28.441 163.348 A 0.813 0.813 0 0 0 28.453 163.491 Q 28.467 163.569 28.498 163.631 A 0.392 0.392 0 0 0 28.556 163.717 Q 28.67 163.846 28.869 163.846 A 1.326 1.326 0 0 0 29.063 163.832 A 1.225 1.225 0 0 0 29.076 163.831 A 2.183 2.183 0 0 0 29.134 163.821 Q 29.19 163.81 29.229 163.799 A 0.608 0.608 0 0 0 29.234 163.798 Z M 21.445 161.446 L 21.389 161.821 Q 21.252 161.79 21.141 161.785 A 0.947 0.947 0 0 0 21.098 161.784 A 0.699 0.699 0 0 0 20.581 162.007 A 0.957 0.957 0 0 0 20.544 162.047 Q 20.315 162.31 20.315 162.701 L 20.315 164.131 L 19.911 164.131 L 19.911 161.466 L 20.244 161.466 L 20.29 161.959 L 20.31 161.959 A 1.363 1.363 0 0 1 20.462 161.742 A 1.041 1.041 0 0 1 20.667 161.558 Q 20.876 161.417 21.127 161.417 Q 21.304 161.417 21.445 161.446 Z M 24.207 163.201 A 2.085 2.085 0 0 0 24.244 162.796 A 2.369 2.369 0 0 0 24.243 162.732 Q 24.237 162.51 24.189 162.321 A 1.257 1.257 0 0 0 23.915 161.789 A 1.057 1.057 0 0 0 23.424 161.473 A 1.356 1.356 0 0 0 23.026 161.417 A 1.568 1.568 0 0 0 22.744 161.441 A 1.068 1.068 0 0 0 22.121 161.781 A 1.115 1.115 0 0 0 21.984 161.971 Q 21.879 162.154 21.832 162.391 A 2.096 2.096 0 0 0 21.796 162.796 A 2.019 2.019 0 0 0 21.821 163.123 A 1.493 1.493 0 0 0 21.946 163.53 A 1.327 1.327 0 0 0 21.976 163.588 A 1.093 1.093 0 0 0 22.374 164.012 A 1.124 1.124 0 0 0 22.632 164.126 A 1.296 1.296 0 0 0 23.009 164.179 A 1.567 1.567 0 0 0 23.283 164.157 A 1.076 1.076 0 0 0 23.916 163.813 A 1.126 1.126 0 0 0 24.05 163.629 Q 24.159 163.442 24.207 163.201 Z M 22.214 162.796 A 2.044 2.044 0 0 0 22.233 163.088 Q 22.255 163.236 22.3 163.356 A 0.847 0.847 0 0 0 22.418 163.574 A 0.662 0.662 0 0 0 22.849 163.828 A 1.003 1.003 0 0 0 23.019 163.841 A 0.938 0.938 0 0 0 23.266 163.811 A 0.652 0.652 0 0 0 23.621 163.575 A 0.867 0.867 0 0 0 23.755 163.312 Q 23.795 163.191 23.812 163.043 A 2.126 2.126 0 0 0 23.826 162.796 A 2.014 2.014 0 0 0 23.807 162.509 Q 23.763 162.207 23.621 162.024 A 0.664 0.664 0 0 0 23.208 161.778 A 1.018 1.018 0 0 0 23.014 161.76 A 0.961 0.961 0 0 0 22.775 161.788 A 0.643 0.643 0 0 0 22.416 162.02 A 0.835 0.835 0 0 0 22.286 162.271 Q 22.248 162.386 22.23 162.527 A 2.133 2.133 0 0 0 22.214 162.796 Z" id="front_labelLayer" stroke="#777777" fill="#777777" style="stroke:#777777;fill:#777777" vector-effect="non-scaling-stroke"/><path d="M 53.1 149.8 L 53.1 159.25 L 50.1 159.25 L 50.1 165.25 L 53.1 165.25 L 53.1 171.25 L 53.1 174.7 L 60.025 174.7 L 60.025 171.7 L 66.025 171.7 L 66.025 174.7 L 72.025 174.7 L 72.025 171.7 L 78.025 171.7 L 78.025 174.7 L 84.025 174.7 L 84.025 171.7 L 90.025 171.7 L 90.025 174.7 L 96.025 174.7 L 96.025 171.7 L 102.025 171.7 L 102.025 174.7 L 108.025 174.7 L 108.025 171.7 L 114.025 171.7 L 114.025 174.7 L 120.025 174.7 L 120.025 171.7 L 126.025 171.7 L 126.025 174.7 L 132.025 174.7 L 132.95 174.7 L 132.95 165.25 L 135.95 165.25 L 135.95 159.25 L 132.95 159.25 L 132.95 153.25 L 132.95 149.8 L 126.025 149.8 L 126.025 152.8 L 120.025 152.8 L 120.025 149.8 L 114.025 149.8 L 114.025 152.8 L 108.025 152.8 L 108.025 149.8 L 102.025 149.8 L 102.025 152.8 L 96.025 152.8 L 96.025 149.8 L 90.025 149.8 L 90.025 152.8 L 84.025 152.8 L 84.025 149.8 L 78.025 149.8 L 78.025 152.8 L 72.025 152.8 L 72.025 149.8 L 66.025 149.8 L 66.025 152.8 L 60.025 152.8 L 60.025 149.8 L 54.025 149.8 L 53.1 149.8 Z" id="left_outsideCutPath" stroke="#FF0000" stroke-width="0.1" style="stroke:#FF0000;stroke-width:0.1" vector-effect="non-scaling-stroke"/><path d="M 94.796 161.466 L 94.796 161.779 L 94.118 161.779 L 94.118 164.131 L 93.714 164.131 L 93.714 161.779 L 93.238 161.779 L 93.238 161.597 L 93.714 161.451 L 93.714 161.303 Q 93.714 160.455 94.354 160.339 A 1.227 1.227 0 0 1 94.573 160.32 A 1.3 1.3 0 0 1 94.757 160.334 Q 94.846 160.347 94.946 160.372 A 2.613 2.613 0 0 1 95.069 160.406 L 94.964 160.729 A 1.96 1.96 0 0 0 94.812 160.686 Q 94.735 160.668 94.667 160.66 A 0.868 0.868 0 0 0 94.565 160.654 Q 94.337 160.654 94.227 160.806 Q 94.118 160.958 94.118 161.293 L 94.118 161.466 L 94.796 161.466 Z M 92.907 162.616 L 92.907 162.871 L 91.071 162.871 A 1.62 1.62 0 0 0 91.1 163.142 Q 91.154 163.417 91.308 163.584 A 0.733 0.733 0 0 0 91.693 163.801 A 1.111 1.111 0 0 0 91.942 163.827 A 2.132 2.132 0 0 0 92.74 163.669 A 2.443 2.443 0 0 0 92.793 163.647 L 92.793 164.007 A 2.423 2.423 0 0 1 92.572 164.09 A 1.853 1.853 0 0 1 92.388 164.139 A 1.695 1.695 0 0 1 92.22 164.165 Q 92.137 164.174 92.043 164.177 A 3.288 3.288 0 0 1 91.927 164.179 A 1.569 1.569 0 0 1 91.535 164.133 A 1.111 1.111 0 0 1 90.995 163.82 A 1.188 1.188 0 0 1 90.71 163.298 Q 90.661 163.113 90.654 162.893 A 2.306 2.306 0 0 1 90.653 162.82 A 2.12 2.12 0 0 1 90.692 162.4 Q 90.744 162.144 90.864 161.946 A 1.195 1.195 0 0 1 90.97 161.796 A 1.034 1.034 0 0 1 91.724 161.42 A 1.427 1.427 0 0 1 91.823 161.417 A 1.23 1.23 0 0 1 92.169 161.463 A 0.936 0.936 0 0 1 92.615 161.747 A 1.129 1.129 0 0 1 92.871 162.262 A 1.643 1.643 0 0 1 92.907 162.616 Z M 96.508 163.798 L 96.508 164.107 Q 96.443 164.138 96.315 164.159 Q 96.196 164.178 96.099 164.179 A 1.034 1.034 0 0 1 96.085 164.179 A 1.054 1.054 0 0 1 95.775 164.138 Q 95.433 164.032 95.344 163.661 A 1.269 1.269 0 0 1 95.312 163.365 L 95.312 161.779 L 94.93 161.779 L 94.93 161.585 L 95.312 161.417 L 95.482 160.848 L 95.716 160.848 L 95.716 161.466 L 96.489 161.466 L 96.489 161.779 L 95.716 161.779 L 95.716 163.348 A 0.813 0.813 0 0 0 95.727 163.491 Q 95.741 163.569 95.772 163.631 A 0.392 0.392 0 0 0 95.83 163.717 Q 95.944 163.846 96.144 163.846 A 1.326 1.326 0 0 0 96.338 163.832 A 1.225 1.225 0 0 0 96.35 163.831 A 2.183 2.183 0 0 0 96.409 163.821 Q 96.464 163.81 96.503 163.799 A 0.608 0.608 0 0 0 96.508 163.798 Z M 89.945 160.347 L 89.945 164.131 L 89.542 164.131 L 89.542 160.347 L 89.945 160.347 Z M 91.081 162.543 L 92.474 162.543 A 1.375 1.375 0 0 0 92.458 162.322 Q 92.438 162.203 92.396 162.108 A 0.624 0.624 0 0 0 92.304 161.958 A 0.553 0.553 0 0 0 91.971 161.769 A 0.83 0.83 0 0 0 91.818 161.755 A 0.796 0.796 0 0 0 91.588 161.787 A 0.615 0.615 0 0 0 91.306 161.964 Q 91.133 162.153 91.089 162.474 A 1.525 1.525 0 0 0 91.081 162.543 Z" id="left_labelLayer" stroke="#777777" fill="#777777" style="stroke:#777777;fill:#777777" vector-effect="non-scaling-stroke"/><path d="M 141.95 91.85 L 141.95 98.775 L 138.95 98.775 L 138.95 104.775 L 141.95 104.775 L 141.95 110.775 L 138.95 110.775 L 138.95 116.775 L 141.95 116.775 L 141.95 122.775 L 138.95 122.775 L 138.95 128.775 L 141.95 128.775 L 141.95 134.775 L 138.95 134.775 L 138.95 140.775 L 141.95 140.775 L 141.95 146.775 L 138.95 146.775 L 138.95 152.775 L 141.95 152.775 L 141.95 158.775 L 138.95 158.775 L 138.95 164.775 L 141.95 164.775 L 141.95 170.775 L 141.95 171.7 L 147.5 171.7 L 147.5 174.7 L 153.5 174.7 L 153.5 171.7 L 159.5 171.7 L 159.5 174.7 L 165.5 174.7 L 165.5 171.7 L 171.5 171.7 L 171.5 174.7 L 177.5 174.7 L 177.5 171.7 L 183.5 171.7 L 183.05 171.7 L 183.05 164.775 L 186.05 164.775 L 186.05 158.775 L 183.05 158.775 L 183.05 152.775 L 186.05 152.775 L 186.05 146.775 L 183.05 146.775 L 183.05 140.775 L 186.05 140.775 L 186.05 134.775 L 183.05 134.775 L 183.05 128.775 L 186.05 128.775 L 186.05 122.775 L 183.05 122.775 L 183.05 116.775 L 186.05 116.775 L 186.05 110.775 L 183.05 110.775 L 183.05 104.775 L 186.05 104.775 L 186.05 98.775 L 183.05 98.775 L 183.05 92.775 L 183.05 91.85 L 177.5 91.85 L 177.5 88.85 L 171.5 88.85 L 171.5 91.85 L 165.5 91.85 L 165.5 88.85 L 159.5 88.85 L 159.5 91.85 L 153.5 91.85 L 153.5 88.85 L 147.5 88.85 L 147.5 91.85 L 141.5 91.85 L 141.95 91.85 Z" id="top_outsideCutPath" stroke="#FF0000" stroke-width="0.1" style="stroke:#FF0000;stroke-width:0.1" vector-effect="non-scaling-stroke"/><path d="M 165.885 133.1 L 165.83 133.1 A 7.226 7.226 0 0 1 165.878 133.634 A 6.055 6.055 0 0 1 165.885 133.937 L 165.885 136.011 L 165.122 136.011 L 165.122 128.707 L 165.743 128.707 L 165.848 129.397 L 165.885 129.397 A 2.055 2.055 0 0 1 166.182 129.059 A 1.589 1.589 0 0 1 166.571 128.799 A 1.912 1.912 0 0 1 167.119 128.639 A 2.475 2.475 0 0 1 167.468 128.615 A 2.34 2.34 0 0 1 168.129 128.703 A 1.73 1.73 0 0 1 169.015 129.3 Q 169.56 129.986 169.56 131.223 A 4.477 4.477 0 0 1 169.501 131.976 Q 169.379 132.69 169.006 133.153 Q 168.452 133.84 167.468 133.84 Q 166.975 133.84 166.568 133.659 A 1.691 1.691 0 0 1 165.885 133.1 Z M 158.425 133.118 L 158.425 133.702 A 0.751 0.751 0 0 1 158.336 133.738 Q 158.225 133.774 158.059 133.801 Q 157.834 133.838 157.65 133.84 A 1.957 1.957 0 0 1 157.624 133.84 Q 156.458 133.84 156.222 132.86 A 2.4 2.4 0 0 1 156.162 132.299 L 156.162 129.3 L 155.44 129.3 L 155.44 128.932 L 156.162 128.615 L 156.484 127.539 L 156.925 127.539 L 156.925 128.707 L 158.388 128.707 L 158.388 129.3 L 156.925 129.3 L 156.925 132.267 A 1.537 1.537 0 0 0 156.947 132.537 Q 156.974 132.685 157.032 132.803 A 0.741 0.741 0 0 0 157.141 132.966 A 0.709 0.709 0 0 0 157.577 133.198 A 1.021 1.021 0 0 0 157.735 133.21 A 2.508 2.508 0 0 0 158.102 133.184 A 2.311 2.311 0 0 0 158.126 133.18 A 4.131 4.131 0 0 0 158.236 133.161 Q 158.341 133.142 158.414 133.121 A 1.148 1.148 0 0 0 158.425 133.118 Z M 163.713 131.99 A 3.944 3.944 0 0 0 163.783 131.223 A 4.481 4.481 0 0 0 163.782 131.102 Q 163.77 130.682 163.679 130.326 A 2.378 2.378 0 0 0 163.16 129.319 Q 162.537 128.615 161.479 128.615 A 2.965 2.965 0 0 0 160.946 128.661 A 2.02 2.02 0 0 0 159.768 129.303 Q 159.358 129.759 159.221 130.456 A 3.964 3.964 0 0 0 159.151 131.223 Q 159.151 132.019 159.437 132.612 A 2.51 2.51 0 0 0 159.492 132.721 A 2.067 2.067 0 0 0 160.246 133.523 Q 160.771 133.84 161.447 133.84 A 2.965 2.965 0 0 0 161.964 133.797 A 2.036 2.036 0 0 0 163.162 133.148 Q 163.575 132.688 163.713 131.99 Z M 159.943 131.223 Q 159.943 132.189 160.329 132.695 A 1.251 1.251 0 0 0 161.144 133.175 A 1.896 1.896 0 0 0 161.465 133.201 A 1.773 1.773 0 0 0 161.933 133.143 A 1.234 1.234 0 0 0 162.603 132.697 Q 162.892 132.323 162.967 131.69 A 4.022 4.022 0 0 0 162.992 131.223 Q 162.992 130.606 162.832 130.18 A 1.572 1.572 0 0 0 162.603 129.763 Q 162.215 129.264 161.456 129.264 A 1.817 1.817 0 0 0 161.003 129.317 A 1.216 1.216 0 0 0 160.324 129.756 A 1.579 1.579 0 0 0 160.079 130.23 Q 159.943 130.64 159.943 131.223 Z M 165.885 131.053 L 165.885 131.223 A 5.048 5.048 0 0 0 165.91 131.745 Q 165.979 132.407 166.239 132.743 A 1.108 1.108 0 0 0 166.801 133.122 Q 167.052 133.201 167.376 133.201 Q 168.029 133.201 168.399 132.672 A 1.846 1.846 0 0 0 168.652 132.132 Q 168.725 131.885 168.753 131.588 A 4.068 4.068 0 0 0 168.769 131.214 Q 168.769 130.271 168.399 129.767 A 1.188 1.188 0 0 0 167.53 129.272 A 1.643 1.643 0 0 0 167.357 129.264 A 2.2 2.2 0 0 0 166.946 129.299 Q 166.485 129.387 166.239 129.691 A 1.308 1.308 0 0 0 166.035 130.064 Q 165.905 130.416 165.888 130.936 A 4.86 4.86 0 0 0 165.885 131.053 Z" id="top_labelLayer" stroke="#777777" fill="#777777" style="stroke:#777777;fill:#777777" vector-effect="non-scaling-stroke"/><path d="M 0 121.9 L 0 131.35 L 3 131.35 L 3 137.35 L 0 137.35 L 0 143.35 L 0 146.8 L 8.55 146.8 L 8.55 143.8 L 14.55 143.8 L 14.55 146.8 L 20.55 146.8 L 20.55 143.8 L 26.55 143.8 L 26.55 146.8 L 32.55 146.8 L 32.55 143.8 L 38.55 143.8 L 38.55 146.8 L 44.55 146.8 L 47.1 146.8 L 47.1 137.35 L 44.1 137.35 L 44.1 131.35 L 47.1 131.35 L 47.1 125.35 L 47.1 121.9 L 38.55 121.9 L 38.55 124.9 L 32.55 124.9 L 32.55 121.9 L 26.55 121.9 L 26.55 124.9 L 20.55 124.9 L 20.55 121.9 L 14.55 121.9 L 14.55 124.9 L 8.55 124.9 L 8.55 121.9 L 2.55 121.9 L 0 121.9 Z" id="back_outsideCutPath" stroke="#FF0000" stroke-width="0.1" style="stroke:#FF0000;stroke-width:0.1" vector-effect="non-scaling-stroke"/><path d="M 26.959 134.853 L 26.979 134.853 A 2.389 2.389 0 0 1 27.038 134.773 Q 27.106 134.685 27.203 134.572 A 8.674 8.674 0 0 1 27.297 134.464 L 28.158 133.552 L 28.637 133.552 L 27.557 134.688 L 28.712 136.217 L 28.224 136.217 L 27.283 134.958 L 26.979 135.22 L 26.979 136.217 L 26.58 136.217 L 26.58 132.434 L 26.979 132.434 L 26.979 134.44 A 2.69 2.69 0 0 1 26.977 134.516 Q 26.974 134.641 26.96 134.843 A 16.67 16.67 0 0 1 26.959 134.853 Z M 18.791 135.875 L 18.762 135.875 L 18.677 136.217 L 18.388 136.217 L 18.388 132.434 L 18.791 132.434 L 18.791 133.353 Q 18.791 133.662 18.772 133.907 L 18.791 133.907 Q 19.073 133.509 19.628 133.509 A 1.234 1.234 0 0 1 19.975 133.555 A 0.924 0.924 0 0 1 20.444 133.867 Q 20.734 134.226 20.734 134.883 Q 20.734 135.539 20.441 135.903 A 0.956 0.956 0 0 1 19.762 136.26 A 1.369 1.369 0 0 1 19.628 136.266 A 1.224 1.224 0 0 1 19.32 136.229 A 1.065 1.065 0 0 1 19.152 136.17 A 0.894 0.894 0 0 1 18.791 135.875 Z M 23.377 136.217 L 23.078 136.217 L 22.998 135.838 L 22.979 135.838 A 1.673 1.673 0 0 1 22.843 135.99 Q 22.77 136.061 22.698 136.111 A 0.744 0.744 0 0 1 22.581 136.177 Q 22.383 136.266 22.086 136.266 Q 21.769 136.266 21.562 136.135 A 0.695 0.695 0 0 1 21.465 136.062 A 0.663 0.663 0 0 1 21.265 135.712 A 1.016 1.016 0 0 1 21.24 135.481 A 0.698 0.698 0 0 1 21.637 134.822 Q 21.933 134.664 22.449 134.638 A 3.943 3.943 0 0 1 22.531 134.634 L 22.983 134.62 L 22.983 134.455 A 1.159 1.159 0 0 0 22.972 134.287 Q 22.96 134.201 22.933 134.132 A 0.45 0.45 0 0 0 22.848 133.991 A 0.41 0.41 0 0 0 22.681 133.882 Q 22.613 133.857 22.53 133.848 A 0.997 0.997 0 0 0 22.417 133.842 A 1.314 1.314 0 0 0 22.114 133.879 Q 21.976 133.912 21.825 133.974 A 2.703 2.703 0 0 0 21.663 134.046 L 21.539 133.737 A 1.861 1.861 0 0 1 21.898 133.59 A 2.118 2.118 0 0 1 21.971 133.569 Q 22.205 133.509 22.441 133.509 A 1.705 1.705 0 0 1 22.701 133.527 Q 22.834 133.548 22.941 133.591 A 0.687 0.687 0 0 1 23.148 133.72 Q 23.328 133.886 23.367 134.209 A 1.588 1.588 0 0 1 23.377 134.399 L 23.377 136.217 Z M 25.987 133.642 L 25.862 133.985 A 1.796 1.796 0 0 0 25.668 133.92 A 2.144 2.144 0 0 0 25.571 133.896 A 1.667 1.667 0 0 0 25.444 133.873 Q 25.361 133.861 25.291 133.861 A 0.895 0.895 0 0 0 24.927 133.93 Q 24.546 134.098 24.489 134.678 A 2.23 2.23 0 0 0 24.479 134.897 Q 24.479 135.219 24.564 135.443 A 0.837 0.837 0 0 0 24.677 135.651 A 0.641 0.641 0 0 0 25.092 135.899 A 0.977 0.977 0 0 0 25.264 135.914 A 1.69 1.69 0 0 0 25.73 135.846 A 2.086 2.086 0 0 0 25.948 135.77 L 25.948 136.128 Q 25.718 136.247 25.386 136.263 A 2.214 2.214 0 0 1 25.274 136.266 A 1.509 1.509 0 0 1 24.907 136.224 A 1.023 1.023 0 0 1 24.378 135.91 Q 24.104 135.602 24.067 135.074 A 2.441 2.441 0 0 1 24.061 134.902 Q 24.061 134.418 24.23 134.093 A 1.113 1.113 0 0 1 24.383 133.869 A 1.045 1.045 0 0 1 24.955 133.539 A 1.585 1.585 0 0 1 25.301 133.504 A 1.822 1.822 0 0 1 25.685 133.545 A 2.015 2.015 0 0 1 25.797 133.572 Q 25.911 133.604 25.987 133.642 Z M 19.13 133.947 A 0.537 0.537 0 0 0 18.974 134.084 Q 18.813 134.292 18.794 134.751 A 3.11 3.11 0 0 0 18.791 134.883 A 2.669 2.669 0 0 0 18.804 135.158 Q 18.834 135.437 18.926 135.606 A 0.609 0.609 0 0 0 18.979 135.686 Q 19.166 135.928 19.579 135.928 A 0.805 0.805 0 0 0 19.808 135.898 A 0.581 0.581 0 0 0 20.134 135.657 Q 20.264 135.463 20.301 135.149 A 2.313 2.313 0 0 0 20.316 134.878 A 2.385 2.385 0 0 0 20.301 134.606 Q 20.265 134.285 20.134 134.102 A 0.589 0.589 0 0 0 19.759 133.865 A 0.934 0.934 0 0 0 19.569 133.847 Q 19.301 133.847 19.13 133.947 Z M 22.974 135.148 L 22.974 134.907 L 22.57 134.924 A 2.964 2.964 0 0 0 22.333 134.941 Q 22.1 134.968 21.953 135.033 A 0.62 0.62 0 0 0 21.876 135.073 A 0.431 0.431 0 0 0 21.671 135.386 A 0.638 0.638 0 0 0 21.663 135.486 A 0.577 0.577 0 0 0 21.677 135.618 Q 21.701 135.72 21.766 135.79 A 0.36 0.36 0 0 0 21.796 135.819 Q 21.91 135.917 22.103 135.931 A 0.908 0.908 0 0 0 22.166 135.933 A 1.111 1.111 0 0 0 22.406 135.909 Q 22.617 135.862 22.759 135.726 A 0.676 0.676 0 0 0 22.947 135.389 Q 22.973 135.28 22.974 135.152 A 1.3 1.3 0 0 0 22.974 135.148 Z" id="back_labelLayer" stroke="#777777" fill="#777777" style="stroke:#777777;fill:#777777" vector-effect="non-scaling-stroke"/><path d="M 53.1 121.9 L 53.1 131.35 L 50.1 131.35 L 50.1 137.35 L 53.1 137.35 L 53.1 143.35 L 53.1 146.8 L 60.025 146.8 L 60.025 143.8 L 66.025 143.8 L 66.025 146.8 L 72.025 146.8 L 72.025 143.8 L 78.025 143.8 L 78.025 146.8 L 84.025 146.8 L 84.025 143.8 L 90.025 143.8 L 90.025 146.8 L 96.025 146.8 L 96.025 143.8 L 102.025 143.8 L 102.025 146.8 L 108.025 146.8 L 108.025 143.8 L 114.025 143.8 L 114.025 146.8 L 120.025 146.8 L 120.025 143.8 L 126.025 143.8 L 126.025 146.8 L 132.025 146.8 L 132.95 146.8 L 132.95 137.35 L 135.95 137.35 L 135.95 131.35 L 132.95 131.35 L 132.95 125.35 L 132.95 121.9 L 126.025 121.9 L 126.025 124.9 L 120.025 124.9 L 120.025 121.9 L 114.025 121.9 L 114.025 124.9 L 108.025 124.9 L 108.025 121.9 L 102.025 121.9 L 102.025 124.9 L 96.025 124.9 L 96.025 121.9 L 90.025 121.9 L 90.025 124.9 L 84.025 124.9 L 84.025 121.9 L 78.025 121.9 L 78.025 124.9 L 72.025 124.9 L 72.025 121.9 L 66.025 121.9 L 66.025 124.9 L 60.025 124.9 L 60.025 121.9 L 54.025 121.9 L 53.1 121.9 Z" id="right_outsideCutPath" stroke="#FF0000" stroke-width="0.1" style="stroke:#FF0000;stroke-width:0.1" vector-effect="non-scaling-stroke"/><path d="M 96.122 135.644 L 95.718 135.644 L 95.718 133.92 A 1.141 1.141 0 0 0 95.705 133.741 Q 95.69 133.646 95.658 133.571 A 0.48 0.48 0 0 0 95.57 133.433 A 0.455 0.455 0 0 0 95.383 133.314 Q 95.266 133.273 95.105 133.273 A 1.222 1.222 0 0 0 94.877 133.293 Q 94.628 133.34 94.491 133.501 A 0.672 0.672 0 0 0 94.377 133.703 Q 94.309 133.888 94.299 134.163 A 2.605 2.605 0 0 0 94.298 134.25 L 94.298 135.644 L 93.894 135.644 L 93.894 131.86 L 94.298 131.86 L 94.298 133.005 A 3.631 3.631 0 0 1 94.295 133.145 Q 94.293 133.21 94.288 133.266 A 1.579 1.579 0 0 1 94.279 133.348 L 94.303 133.348 A 0.806 0.806 0 0 1 94.585 133.076 A 0.985 0.985 0 0 1 94.642 133.045 A 1.036 1.036 0 0 1 94.982 132.945 A 1.31 1.31 0 0 1 95.144 132.935 Q 95.633 132.935 95.877 133.167 Q 96.122 133.399 96.122 133.905 L 96.122 135.644 Z M 92.426 132.979 L 93.347 132.979 L 93.347 133.234 L 92.854 133.292 Q 92.911 133.364 92.958 133.473 A 1.244 1.244 0 0 1 92.975 133.515 A 0.777 0.777 0 0 1 93.021 133.7 A 0.997 0.997 0 0 1 93.029 133.825 A 0.925 0.925 0 0 1 92.986 134.112 A 0.748 0.748 0 0 1 92.761 134.45 Q 92.494 134.683 92.027 134.683 A 1.297 1.297 0 0 1 91.877 134.675 A 1.095 1.095 0 0 1 91.803 134.664 Q 91.545 134.8 91.545 135.007 A 0.209 0.209 0 0 0 91.556 135.075 Q 91.575 135.131 91.63 135.165 A 0.224 0.224 0 0 0 91.635 135.168 Q 91.708 135.21 91.864 135.219 A 1.536 1.536 0 0 0 91.944 135.221 L 92.416 135.221 Q 92.849 135.221 93.081 135.403 A 0.591 0.591 0 0 1 93.3 135.779 A 0.887 0.887 0 0 1 93.313 135.933 Q 93.313 136.367 92.972 136.599 A 0.958 0.958 0 0 1 92.958 136.608 A 1.211 1.211 0 0 1 92.646 136.749 Q 92.492 136.796 92.305 136.819 A 3.199 3.199 0 0 1 91.922 136.84 A 2.262 2.262 0 0 1 91.619 136.821 Q 91.311 136.779 91.116 136.645 A 0.643 0.643 0 0 1 90.909 136.42 Q 90.842 136.297 90.834 136.141 A 0.852 0.852 0 0 1 90.833 136.096 Q 90.833 135.853 90.989 135.675 A 0.705 0.705 0 0 1 91.231 135.499 A 0.999 0.999 0 0 1 91.426 135.434 A 0.419 0.419 0 0 1 91.264 135.303 A 0.497 0.497 0 0 1 91.255 135.291 A 0.374 0.374 0 0 1 91.186 135.089 A 0.463 0.463 0 0 1 91.185 135.065 A 0.462 0.462 0 0 1 91.209 134.916 A 0.409 0.409 0 0 1 91.263 134.81 A 0.578 0.578 0 0 1 91.34 134.724 Q 91.408 134.659 91.509 134.598 A 0.708 0.708 0 0 1 91.201 134.352 A 0.877 0.877 0 0 1 91.172 134.309 A 0.834 0.834 0 0 1 91.044 133.907 A 1.018 1.018 0 0 1 91.042 133.842 A 1.166 1.166 0 0 1 91.073 133.566 A 0.767 0.767 0 0 1 91.305 133.167 A 0.857 0.857 0 0 1 91.634 132.986 Q 91.815 132.93 92.049 132.93 A 1.547 1.547 0 0 1 92.253 132.943 A 1.178 1.178 0 0 1 92.426 132.979 Z M 98.176 135.31 L 98.176 135.619 Q 98.111 135.651 97.983 135.672 Q 97.864 135.691 97.767 135.692 A 1.034 1.034 0 0 1 97.753 135.692 A 1.054 1.054 0 0 1 97.443 135.65 Q 97.101 135.545 97.012 135.174 A 1.269 1.269 0 0 1 96.98 134.878 L 96.98 133.292 L 96.598 133.292 L 96.598 133.098 L 96.98 132.93 L 97.15 132.361 L 97.384 132.361 L 97.384 132.979 L 98.157 132.979 L 98.157 133.292 L 97.384 133.292 L 97.384 134.861 A 0.813 0.813 0 0 0 97.395 135.003 Q 97.409 135.082 97.44 135.144 A 0.392 0.392 0 0 0 97.498 135.23 Q 97.612 135.359 97.812 135.359 A 1.326 1.326 0 0 0 98.006 135.345 A 1.225 1.225 0 0 0 98.018 135.343 A 2.183 2.183 0 0 0 98.077 135.333 Q 98.132 135.323 98.171 135.312 A 0.608 0.608 0 0 0 98.176 135.31 Z M 89.408 132.959 L 89.352 133.334 Q 89.214 133.303 89.104 133.298 A 0.947 0.947 0 0 0 89.06 133.297 A 0.699 0.699 0 0 0 88.543 133.52 A 0.957 0.957 0 0 0 88.507 133.56 Q 88.277 133.822 88.277 134.214 L 88.277 135.644 L 87.874 135.644 L 87.874 132.979 L 88.207 132.979 L 88.253 133.472 L 88.272 133.472 A 1.363 1.363 0 0 1 88.425 133.254 A 1.041 1.041 0 0 1 88.63 133.071 Q 88.839 132.93 89.089 132.93 Q 89.267 132.93 89.408 132.959 Z M 90.31 132.979 L 90.31 135.644 L 89.906 135.644 L 89.906 132.979 L 90.31 132.979 Z M 92.287 135.583 L 91.803 135.583 A 0.928 0.928 0 0 0 91.636 135.597 Q 91.478 135.626 91.375 135.714 A 0.425 0.425 0 0 0 91.235 135.955 A 0.646 0.646 0 0 0 91.222 136.091 A 0.405 0.405 0 0 0 91.249 136.241 Q 91.292 136.35 91.404 136.419 A 0.646 0.646 0 0 0 91.563 136.487 Q 91.713 136.531 91.924 136.531 A 1.967 1.967 0 0 0 91.927 136.531 A 2.714 2.714 0 0 0 92.192 136.519 Q 92.458 136.493 92.625 136.41 A 0.67 0.67 0 0 0 92.68 136.379 A 0.589 0.589 0 0 0 92.816 136.265 A 0.441 0.441 0 0 0 92.924 135.967 A 0.546 0.546 0 0 0 92.914 135.859 Q 92.888 135.728 92.79 135.667 Q 92.657 135.583 92.287 135.583 Z M 91.441 133.832 A 0.788 0.788 0 0 0 91.457 133.997 Q 91.491 134.158 91.599 134.255 Q 91.741 134.384 91.984 134.397 A 1.039 1.039 0 0 0 92.039 134.399 A 0.879 0.879 0 0 0 92.269 134.371 Q 92.533 134.3 92.604 134.041 A 0.818 0.818 0 0 0 92.63 133.825 A 0.868 0.868 0 0 0 92.6 133.587 Q 92.524 133.321 92.253 133.25 A 0.878 0.878 0 0 0 92.032 133.224 A 0.847 0.847 0 0 0 91.859 133.241 Q 91.697 133.274 91.594 133.377 Q 91.464 133.507 91.444 133.744 A 1.062 1.062 0 0 0 91.441 133.832 Z M 89.872 132.256 Q 89.872 132.118 89.94 132.053 A 0.233 0.233 0 0 1 90.09 131.99 A 0.308 0.308 0 0 1 90.111 131.989 A 0.238 0.238 0 0 1 90.278 132.055 Q 90.349 132.12 90.349 132.256 A 0.418 0.418 0 0 1 90.342 132.333 Q 90.334 132.375 90.317 132.408 A 0.197 0.197 0 0 1 90.278 132.459 Q 90.208 132.526 90.111 132.526 A 0.256 0.256 0 0 1 90.022 132.512 A 0.226 0.226 0 0 1 89.94 132.459 Q 89.884 132.404 89.874 132.302 A 0.477 0.477 0 0 1 89.872 132.256 Z" id="right_labelLayer" stroke="#777777" fill="#777777" style="stroke:#777777;fill:#777777" vector-effect="non-scaling-stroke"/><path d="M 141.95 3 L 141.95 9.925 L 138.95 9.925 L 138.95 15.925 L 141.95 15.925 L 141.95 21.925 L 138.95 21.925 L 138.95 27.925 L 141.95 27.925 L 141.95 33.925 L 138.95 33.925 L 138.95 39.925 L 141.95 39.925 L 141.95 45.925 L 138.95 45.925 L 138.95 51.925 L 141.95 51.925 L 141.95 57.925 L 138.95 57.925 L 138.95 63.925 L 141.95 63.925 L 141.95 69.925 L 138.95 69.925 L 138.95 75.925 L 141.95 75.925 L 141.95 81.925 L 141.95 82.85 L 147.5 82.85 L 147.5 85.85 L 153.5 85.85 L 153.5 82.85 L 159.5 82.85 L 159.5 85.85 L 165.5 85.85 L 165.5 82.85 L 171.5 82.85 L 171.5 85.85 L 177.5 85.85 L 177.5 82.85 L 183.5 82.85 L 183.05 82.85 L 183.05 75.925 L 186.05 75.925 L 186.05 69.925 L 183.05 69.925 L 183.05 63.925 L 186.05 63.925 L 186.05 57.925 L 183.05 57.925 L 183.05 51.925 L 186.05 51.925 L 186.05 45.925 L 183.05 45.925 L 183.05 39.925 L 186.05 39.925 L 186.05 33.925 L 183.05 33.925 L 183.05 27.925 L 186.05 27.925 L 186.05 21.925 L 183.05 21.925 L 183.05 15.925 L 186.05 15.925 L 186.05 9.925 L 183.05 9.925 L 183.05 3.925 L 183.05 3 L 177.5 3 L 177.5 0 L 171.5 0 L 171.5 3 L 165.5 3 L 165.5 0 L 159.5 0 L 159.5 3 L 153.5 3 L 153.5 0 L 147.5 0 L 147.5 3 L 141.5 3 L 141.95 3 Z" id="bottom_outsideCutPath" stroke="#FF0000" stroke-width="0.1" style="stroke:#FF0000;stroke-width:0.1" vector-effect="non-scaling-stroke"/><path d="M 177.996 46.457 L 177.233 46.457 L 177.233 43.178 Q 177.233 42.575 176.975 42.274 A 0.803 0.803 0 0 0 176.601 42.033 Q 176.416 41.973 176.175 41.973 A 1.965 1.965 0 0 0 175.775 42.011 Q 175.537 42.06 175.358 42.174 A 1.011 1.011 0 0 0 175.121 42.382 A 1.262 1.262 0 0 0 174.907 42.769 Q 174.782 43.121 174.781 43.635 A 4.263 4.263 0 0 0 174.781 43.642 L 174.781 46.457 L 174.017 46.457 L 174.017 43.178 Q 174.017 42.575 173.76 42.274 A 0.801 0.801 0 0 0 173.391 42.035 Q 173.259 41.991 173.097 41.978 A 1.788 1.788 0 0 0 172.955 41.973 A 1.896 1.896 0 0 0 172.563 42.011 Q 172.138 42.1 171.904 42.403 A 1.28 1.28 0 0 0 171.714 42.763 Q 171.591 43.112 171.573 43.634 A 5.316 5.316 0 0 0 171.57 43.813 L 171.57 46.457 L 170.807 46.457 L 170.807 41.416 L 171.428 41.416 L 171.552 42.106 L 171.589 42.106 A 1.501 1.501 0 0 1 172.198 41.531 Q 172.592 41.324 173.079 41.324 Q 174.261 41.324 174.625 42.18 L 174.661 42.18 A 1.594 1.594 0 0 1 175.262 41.584 A 1.916 1.916 0 0 1 175.314 41.554 A 1.932 1.932 0 0 1 176.023 41.339 A 2.41 2.41 0 0 1 176.29 41.324 A 2.654 2.654 0 0 1 176.771 41.365 Q 177.039 41.414 177.248 41.524 A 1.258 1.258 0 0 1 177.571 41.763 Q 177.88 42.083 177.965 42.682 A 3.502 3.502 0 0 1 177.996 43.169 L 177.996 46.457 Z M 147.767 45.809 L 147.712 45.809 L 147.551 46.457 L 147.004 46.457 L 147.004 39.3 L 147.767 39.3 L 147.767 41.039 A 15.919 15.919 0 0 1 147.759 41.577 Q 147.75 41.831 147.733 42.058 A 9.571 9.571 0 0 1 147.731 42.088 L 147.767 42.088 A 1.736 1.736 0 0 1 149.035 41.352 A 2.608 2.608 0 0 1 149.35 41.333 A 2.334 2.334 0 0 1 150.006 41.421 A 1.747 1.747 0 0 1 150.893 42.012 Q 151.333 42.555 151.421 43.46 A 4.901 4.901 0 0 1 151.443 43.932 A 4.477 4.477 0 0 1 151.383 44.685 Q 151.261 45.399 150.888 45.862 Q 150.334 46.549 149.35 46.549 Q 148.858 46.549 148.45 46.368 A 1.691 1.691 0 0 1 147.767 45.809 Z M 160.784 45.827 L 160.784 46.411 A 0.751 0.751 0 0 1 160.695 46.447 Q 160.585 46.483 160.419 46.51 Q 160.193 46.547 160.01 46.549 A 1.957 1.957 0 0 1 159.984 46.549 Q 158.817 46.549 158.581 45.569 A 2.4 2.4 0 0 1 158.521 45.009 L 158.521 42.01 L 157.799 42.01 L 157.799 41.642 L 158.521 41.324 L 158.843 40.248 L 159.285 40.248 L 159.285 41.416 L 160.748 41.416 L 160.748 42.01 L 159.285 42.01 L 159.285 44.976 A 1.537 1.537 0 0 0 159.307 45.246 Q 159.334 45.394 159.392 45.512 A 0.741 0.741 0 0 0 159.501 45.675 A 0.709 0.709 0 0 0 159.937 45.908 A 1.021 1.021 0 0 0 160.094 45.919 A 2.508 2.508 0 0 0 160.462 45.893 A 2.311 2.311 0 0 0 160.485 45.889 A 4.131 4.131 0 0 0 160.596 45.87 Q 160.701 45.851 160.774 45.83 A 1.148 1.148 0 0 0 160.784 45.827 Z M 164.11 45.827 L 164.11 46.411 A 0.751 0.751 0 0 1 164.021 46.447 Q 163.91 46.483 163.744 46.51 Q 163.519 46.547 163.335 46.549 A 1.957 1.957 0 0 1 163.31 46.549 Q 162.143 46.549 161.907 45.569 A 2.4 2.4 0 0 1 161.847 45.009 L 161.847 42.01 L 161.125 42.01 L 161.125 41.642 L 161.847 41.324 L 162.169 40.248 L 162.61 40.248 L 162.61 41.416 L 164.073 41.416 L 164.073 42.01 L 162.61 42.01 L 162.61 44.976 A 1.537 1.537 0 0 0 162.633 45.246 Q 162.659 45.394 162.717 45.512 A 0.741 0.741 0 0 0 162.827 45.675 A 0.709 0.709 0 0 0 163.263 45.908 A 1.021 1.021 0 0 0 163.42 45.919 A 2.508 2.508 0 0 0 163.787 45.893 A 2.311 2.311 0 0 0 163.811 45.889 A 4.131 4.131 0 0 0 163.921 45.87 Q 164.026 45.851 164.1 45.83 A 1.148 1.148 0 0 0 164.11 45.827 Z M 157.058 44.699 A 3.944 3.944 0 0 0 157.128 43.932 A 4.481 4.481 0 0 0 157.126 43.811 Q 157.115 43.391 157.024 43.035 A 2.378 2.378 0 0 0 156.504 42.028 Q 155.881 41.324 154.823 41.324 A 2.965 2.965 0 0 0 154.291 41.37 A 2.02 2.02 0 0 0 153.112 42.012 Q 152.703 42.468 152.565 43.165 A 3.964 3.964 0 0 0 152.496 43.932 Q 152.496 44.728 152.781 45.321 A 2.51 2.51 0 0 0 152.837 45.43 A 2.067 2.067 0 0 0 153.591 46.232 Q 154.115 46.549 154.791 46.549 A 2.965 2.965 0 0 0 155.309 46.506 A 2.036 2.036 0 0 0 156.507 45.857 Q 156.919 45.397 157.058 44.699 Z M 169.398 44.699 A 3.944 3.944 0 0 0 169.468 43.932 A 4.481 4.481 0 0 0 169.467 43.811 Q 169.455 43.391 169.365 43.035 A 2.378 2.378 0 0 0 168.845 42.028 Q 168.222 41.324 167.164 41.324 A 2.965 2.965 0 0 0 166.631 41.37 A 2.02 2.02 0 0 0 165.453 42.012 Q 165.044 42.468 164.906 43.165 A 3.964 3.964 0 0 0 164.837 43.932 Q 164.837 44.728 165.122 45.321 A 2.51 2.51 0 0 0 165.177 45.43 A 2.067 2.067 0 0 0 165.931 46.232 Q 166.456 46.549 167.132 46.549 A 2.965 2.965 0 0 0 167.65 46.506 A 2.036 2.036 0 0 0 168.847 45.857 Q 169.26 45.397 169.398 44.699 Z M 153.287 43.932 Q 153.287 44.898 153.673 45.404 A 1.251 1.251 0 0 0 154.488 45.884 A 1.896 1.896 0 0 0 154.809 45.91 A 1.773 1.773 0 0 0 155.277 45.852 A 1.234 1.234 0 0 0 155.948 45.406 Q 156.237 45.032 156.311 44.399 A 4.022 4.022 0 0 0 156.337 43.932 Q 156.337 43.316 156.177 42.889 A 1.572 1.572 0 0 0 155.948 42.472 Q 155.559 41.973 154.8 41.973 A 1.817 1.817 0 0 0 154.348 42.026 A 1.216 1.216 0 0 0 153.669 42.465 A 1.579 1.579 0 0 0 153.423 42.939 Q 153.287 43.349 153.287 43.932 Z M 165.628 43.932 Q 165.628 44.898 166.014 45.404 A 1.251 1.251 0 0 0 166.829 45.884 A 1.896 1.896 0 0 0 167.15 45.91 A 1.773 1.773 0 0 0 167.618 45.852 A 1.234 1.234 0 0 0 168.289 45.406 Q 168.578 45.032 168.652 44.399 A 4.022 4.022 0 0 0 168.677 43.932 Q 168.677 43.316 168.517 42.889 A 1.572 1.572 0 0 0 168.289 42.472 Q 167.9 41.973 167.141 41.973 A 1.817 1.817 0 0 0 166.689 42.026 A 1.216 1.216 0 0 0 166.009 42.465 A 1.579 1.579 0 0 0 165.764 42.939 Q 165.628 43.349 165.628 43.932 Z M 149.239 41.973 Q 148.457 41.973 148.112 42.421 Q 147.809 42.815 147.773 43.683 A 5.883 5.883 0 0 0 147.767 43.932 A 5.048 5.048 0 0 0 147.792 44.454 Q 147.862 45.116 148.122 45.452 A 1.108 1.108 0 0 0 148.684 45.832 Q 148.934 45.91 149.258 45.91 A 1.522 1.522 0 0 0 149.69 45.852 A 1.098 1.098 0 0 0 150.306 45.397 A 1.753 1.753 0 0 0 150.523 44.928 Q 150.591 44.705 150.623 44.436 A 4.375 4.375 0 0 0 150.651 43.923 Q 150.651 42.99 150.341 42.507 A 1.266 1.266 0 0 0 150.306 42.456 A 1.113 1.113 0 0 0 149.598 42.007 A 1.766 1.766 0 0 0 149.239 41.973 Z" id="bottom_labelLayer" stroke="#777777" fill="#777777" style="stroke:#777777;fill:#777777" vector-effect="non-scaling-stroke"/></g></svg>