<svg width="166.3mm" height="135.2mm" viewBox="0 0 166.3 135.2" xmlns="http://www.w3.org/2000/svg" version="1.1" preserveAspectRatio="xMidYMid meet"><g id="svgGroup" stroke-linecap="round" fill-rule="evenodd" font-size="9pt" stroke="#000" stroke-width="0.25mm" fill="none" style="stroke:#000;stroke-width:0.25mm;fill:none"><path d="M 0 110.3 L 0 119.75 L 3 119.75 L 3 125.75 L 0 125.75 L 0 131.75 L 0 135.2 L 8.55 135.2 L 8.55 132.2 L 14.55 132.2 L 14.55 135.2 L 20.55 135.2 L 20.55 132.2 L 26.55 132.2 L 26.55 135.2 L 32.55 135.2 L 32.55 132.2 L 38.55 132.2 L 38.55 135.2 L 44.55 135.2 L 47.1 135.2 L 47.1 125.75 L 44.1 125.75 L 44.1 119.75 L 47.1 119.75 L 47.1 113.75 L 47.1 110.3 L 38.55 110.3 L 38.55 113.3 L 32.55 113.3 L 32.55 110.3 L 26.55 110.3 L 26.55 113.3 L 20.55 113.3 L 20.55 110.3 L 14.55 110.3 L 14.55 113.3 L 8.55 113.3 L 8.55 110.3 L 2.55 110.3 L 0 110.3 Z" id="front_outsideCutPath" stroke="#FF0000" stroke-width="0.1" style="stroke:#FF0000;stroke-width:0.1" vector-effect="non-scaling-stroke"/><path d="M 27.179 124.631 L 26.776 124.631 L 26.776 122.907 A 1.141 1.141 0 0 0 26.762 122.728 Q 26.748 122.634 26.715 122.559 A 0.48 0.48 0 0 0 26.627 122.42 A 0.455 0.455 0 0 0 26.441 122.301 Q 26.323 122.26 26.163 122.26 Q 25.887 122.26 25.709 122.358 A 0.569 0.569 0 0 0 25.55 122.486 Q 25.372 122.693 25.357 123.145 A 2.586 2.586 0 0 0 25.355 123.233 L 25.355 124.631 L 24.952 124.631 L 24.952 121.966 L 25.28 121.966 L 25.346 122.33 L 25.365 122.33 A 0.817 0.817 0 0 1 25.685 122.039 A 0.983 0.983 0 0 1 25.713 122.025 Q 25.937 121.917 26.211 121.917 A 1.594 1.594 0 0 1 26.483 121.939 Q 26.767 121.988 26.936 122.149 Q 27.179 122.382 27.179 122.892 L 27.179 124.631 Z M 19.425 121.966 L 19.425 122.279 L 18.746 122.279 L 18.746 124.631 L 18.343 124.631 L 18.343 122.279 L 17.866 122.279 L 17.866 122.097 L 18.343 121.951 L 18.343 121.803 Q 18.343 120.955 18.982 120.839 A 1.227 1.227 0 0 1 19.201 120.82 A 1.3 1.3 0 0 1 19.385 120.834 Q 19.474 120.847 19.574 120.872 A 2.613 2.613 0 0 1 19.697 120.906 L 19.593 121.229 A 1.96 1.96 0 0 0 19.44 121.186 Q 19.363 121.168 19.295 121.16 A 0.868 0.868 0 0 0 19.194 121.154 Q 18.965 121.154 18.856 121.306 Q 18.746 121.458 18.746 121.793 L 18.746 121.966 L 19.425 121.966 Z M 29.234 124.298 L 29.234 124.607 Q 29.168 124.638 29.041 124.659 Q 28.921 124.678 28.825 124.679 A 1.034 1.034 0 0 1 28.811 124.679 A 1.054 1.054 0 0 1 28.5 124.638 Q 28.159 124.532 28.069 124.161 A 1.269 1.269 0 0 1 28.038 123.865 L 28.038 122.279 L 27.656 122.279 L 27.656 122.085 L 28.038 121.917 L 28.208 121.348 L 28.441 121.348 L 28.441 121.966 L 29.215 121.966 L 29.215 122.279 L 28.441 122.279 L 28.441 123.848 A 0.813 0.813 0 0 0 28.453 123.991 Q 28.467 124.069 28.498 124.131 A 0.392 0.392 0 0 0 28.556 124.217 Q 28.67 124.346 28.869 124.346 A 1.326 1.326 0 0 0 29.063 124.332 A 1.225 1.225 0 0 0 29.076 124.331 A 2.183 2.183 0 0 0 29.134 124.321 Q 29.19 124.31 29.229 124.299 A 0.608 0.608 0 0 0 29.234 124.298 Z M 21.445 121.946 L 21.389 122.321 Q 21.252 122.29 21.141 122.285 A 0.947 0.947 0 0 0 21.098 122.284 A 0.699 0.699 0 0 0 20.581 122.507 A 0.957 0.957 0 0 0 20.544 122.547 Q 20.315 122.81 20.315 123.201 L 20.315 124.631 L 19.911 124.631 L 19.911 121.966 L 20.244 121.966 L 20.29 122.459 L 20.31 122.459 A 1.363 1.363 0 0 1 20.462 122.242 A 1.041 1.041 0 0 1 20.667 122.058 Q 20.876 121.917 21.127 121.917 Q 21.304 121.917 21.445 121.946 Z M 24.207 123.701 A 2.085 2.085 0 0 0 24.244 123.296 A 2.369 2.369 0 0 0 24.243 123.232 Q 24.237 123.01 24.189 122.821 A 1.257 1.257 0 0 0 23.915 122.289 A 1.057 1.057 0 0 0 23.424 121.973 A 1.356 1.356 0 0 0 23.026 121.917 A 1.568 1.568 0 0 0 22.744 121.941 A 1.068 1.068 0 0 0 22.121 122.281 A 1.115 1.115 0 0 0 21.984 122.471 Q 21.879 122.654 21.832 122.891 A 2.096 2.096 0 0 0 21.796 123.296 A 2.019 2.019 0 0 0 21.821 123.623 A 1.493 1.493 0 0 0 21.946 124.03 A 1.327 1.327 0 0 0 21.976 124.088 A 1.093 1.093 0 0 0 22.374 124.512 A 1.124 1.124 0 0 0 22.632 124.626 A 1.296 1.296 0 0 0 23.009 124.679 A 1.567 1.567 0 0 0 23.283 124.657 A 1.076 1.076 0 0 0 23.916 124.313 A 1.126 1.126 0 0 0 24.05 124.129 Q 24.159 123.942 24.207 123.701 Z M 22.214 123.296 A 2.044 2.044 0 0 0 22.233 123.588 Q 22.255 123.736 22.3 123.856 A 0.847 0.847 0 0 0 22.418 124.074 A 0.662 0.662 0 0 0 22.849 124.328 A 1.003 1.003 0 0 0 23.019 124.341 A 0.938 0.938 0 0 0 23.266 124.311 A 0.652 0.652 0 0 0 23.621 124.075 A 0.867 0.867 0 0 0 23.755 123.812 Q 23.795 123.691 23.812 123.543 A 2.126 2.126 0 0 0 23.826 123.296 A 2.014 2.014 0 0 0 23.807 123.009 Q 23.763 122.707 23.621 122.524 A 0.664 0.664 0 0 0 23.208 122.278 A 1.018 1.018 0 0 0 23.014 122.26 A 0.961 0.961 0 0 0 22.775 122.288 A 0.643 0.643 0 0 0 22.416 122.52 A 0.835 0.835 0 0 0 22.286 122.771 Q 22.248 122.886 22.23 123.027 A 2.133 2.133 0 0 0 22.214 123.296 Z" id="front_labelLayer" stroke="#777777" fill="#777777" style="stroke:#777777;fill:#777777" vector-effect="non-scaling-stroke"/><path d="M 53.1 110.3 L 53.1 119.75 L 50.1 119.75 L 50.1 125.75 L 53.1 125.75 L 53.1 131.75 L 53.1 135.2 L 56.15 135.2 L 56.15 132.2 L 62.15 132.2 L 62.15 135.2 L 68.15 135.2 L 68.15 132.2 L 74.15 132.2 L 74.15 135.2 L 80.15 135.2 L 80.15 132.2 L 86.15 132.2 L 86.15 135.2 L 92.15 135.2 L 92.15 132.2 L 98.15 132.2 L 98.15 135.2 L 104.15 135.2 L 104.15 132.2 L 110.15 132.2 L 110.15 135.2 L 113.2 135.2 L 113.2 125.75 L 116.2 125.75 L 116.2 119.75 L 113.2 119.75 L 113.2 113.75 L 113.2 110.3 L 110.15 110.3 L 110.15 113.3 L 104.15 113.3 L 104.15 110.3 L 98.15 110.3 L 98.15 113.3 L 92.15 113.3 L 92.15 110.3 L 86.15 110.3 L 86.15 113.3 L 80.15 113.3 L 80.15 110.3 L 74.15 110.3 L 74.15 113.3 L 68.15 113.3 L 68.15 110.3 L 62.15 110.3 L 62.15 113.3 L 56.15 113.3 L 56.15 110.3 L 53.1 110.3 Z" id="left_outsideCutPath" stroke="#FF0000" stroke-width="0.1" style="stroke:#FF0000;stroke-width:0.1" vector-effect="non-scaling-stroke"/><path d="M 84.921 121.966 L 84.921 122.279 L 84.243 122.279 L 84.243 124.631 L 83.839 124.631 L 83.839 122.279 L 83.363 122.279 L 83.363 122.097 L 83.839 121.951 L 83.839 121.803 Q 83.839 120.955 84.479 120.839 A 1.227 1.227 0 0 1 84.698 120.82 A 1.3 1.3 0 0 1 84.882 120.834 Q 84.971 120.847 85.071 120.872 A 2.613 2.613 0 0 1 85.194 120.906 L 85.089 121.229 A 1.96 1.96 0 0 0 84.937 121.186 Q 84.86 121.168 84.792 121.16 A 0.868 0.868 0 0 0 84.69 121.154 Q 84.462 121.154 84.352 121.306 Q 84.243 121.458 84.243 121.793 L 84.243 121.966 L 84.921 121.966 Z M 83.032 123.116 L 83.032 123.371 L 81.196 123.371 A 1.62 1.62 0 0 0 81.225 123.642 Q 81.279 123.917 81.433 124.084 A 0.733 0.733 0 0 0 81.818 124.301 A 1.111 1.111 0 0 0 82.067 124.327 A 2.132 2.132 0 0 0 82.865 124.169 A 2.443 2.443 0 0 0 82.918 124.147 L 82.918 124.507 A 2.423 2.423 0 0 1 82.697 124.59 A 1.853 1.853 0 0 1 82.513 124.639 A 1.695 1.695 0 0 1 82.345 124.665 Q 82.262 124.674 82.168 124.677 A 3.288 3.288 0 0 1 82.052 124.679 A 1.569 1.569 0 0 1 81.66 124.633 A 1.111 1.111 0 0 1 81.12 124.32 A 1.188 1.188 0 0 1 80.835 123.798 Q 80.786 123.613 80.779 123.393 A 2.306 2.306 0 0 1 80.778 123.32 A 2.12 2.12 0 0 1 80.817 122.9 Q 80.869 122.644 80.989 122.446 A 1.195 1.195 0 0 1 81.095 122.296 A 1.034 1.034 0 0 1 81.849 121.92 A 1.427 1.427 0 0 1 81.948 121.917 A 1.23 1.23 0 0 1 82.294 121.963 A 0.936 0.936 0 0 1 82.74 122.247 A 1.129 1.129 0 0 1 82.996 122.762 A 1.643 1.643 0 0 1 83.032 123.116 Z M 86.633 124.298 L 86.633 124.607 Q 86.568 124.638 86.44 124.659 Q 86.321 124.678 86.224 124.679 A 1.034 1.034 0 0 1 86.21 124.679 A 1.054 1.054 0 0 1 85.9 124.638 Q 85.558 124.532 85.469 124.161 A 1.269 1.269 0 0 1 85.437 123.865 L 85.437 122.279 L 85.055 122.279 L 85.055 122.085 L 85.437 121.917 L 85.607 121.348 L 85.841 121.348 L 85.841 121.966 L 86.614 121.966 L 86.614 122.279 L 85.841 122.279 L 85.841 123.848 A 0.813 0.813 0 0 0 85.852 123.991 Q 85.866 124.069 85.897 124.131 A 0.392 0.392 0 0 0 85.955 124.217 Q 86.069 124.346 86.269 124.346 A 1.326 1.326 0 0 0 86.463 124.332 A 1.225 1.225 0 0 0 86.475 124.331 A 2.183 2.183 0 0 0 86.534 124.321 Q 86.589 124.31 86.628 124.299 A 0.608 0.608 0 0 0 86.633 124.298 Z M 80.07 120.847 L 80.07 124.631 L 79.667 124.631 L 79.667 120.847 L 80.07 120.847 Z M 81.206 123.043 L 82.599 123.043 A 1.375 1.375 0 0 0 82.583 122.822 Q 82.563 122.703 82.521 122.608 A 0.624 0.624 0 0 0 82.429 122.458 A 0.553 0.553 0 0 0 82.096 122.269 A 0.83 0.83 0 0 0 81.943 122.255 A 0.796 0.796 0 0 0 81.713 122.287 A 0.615 0.615 0 0 0 81.431 122.464 Q 81.258 122.653 81.214 122.974 A 1.525 1.525 0 0 0 81.206 123.043 Z" id="left_labelLayer" stroke="#777777" fill="#777777" style="stroke:#777777;fill:#777777" vector-effect="non-scaling-stroke"/><path d="M 122.2 72.1 L 122.2 75.15 L 119.2 75.15 L 119.2 81.15 L 122.2 81.15 L 122.2 87.15 L 119.2 87.15 L 119.2 93.15 L 122.2 93.15 L 122.2 99.15 L 119.2 99.15 L 119.2 105.15 L 122.2 105.15 L 122.2 111.15 L 119.2 111.15 L 119.2 117.15 L 122.2 117.15 L 122.2 123.15 L 119.2 123.15 L 119.2 129.15 L 122.2 129.15 L 122.2 132.2 L 127.75 132.2 L 127.75 135.2 L 133.75 135.2 L 133.75 132.2 L 139.75 132.2 L 139.75 135.2 L 145.75 135.2 L 145.75 132.2 L 151.75 132.2 L 151.75 135.2 L 157.75 135.2 L 157.75 132.2 L 163.75 132.2 L 163.3 132.2 L 163.3 129.15 L 166.3 129.15 L 166.3 123.15 L 163.3 123.15 L 163.3 117.15 L 166.3 117.15 L 166.3 111.15 L 163.3 111.15 L 163.3 105.15 L 166.3 105.15 L 166.3 99.15 L 163.3 99.15 L 163.3 93.15 L 166.3 93.15 L 166.3 87.15 L 163.3 87.15 L 163.3 81.15 L 166.3 81.15 L 166.3 75.15 L 163.3 75.15 L 163.3 72.1 L 157.75 72.1 L 157.75 69.1 L 151.75 69.1 L 151.75 72.1 L 145.75 72.1 L 145.75 69.1 L 139.75 69.1 L 139.75 72.1 L 133.75 72.1 L 133.75 69.1 L 127.75 69.1 L 127.75 72.1 L 121.75 72.1 L 122.2 72.1 Z" id="top_outsideCutPath" stroke="#FF0000" stroke-width="0.1" style="stroke:#FF0000;stroke-width:0.1" vector-effect="non-scaling-stroke"/><path d="M 146.135 103.475 L 146.08 103.475 A 7.226 7.226 0 0 1 146.128 104.009 A 6.055 6.055 0 0 1 146.135 104.312 L 146.135 106.386 L 145.372 106.386 L 145.372 99.082 L 145.993 99.082 L 146.098 99.772 L 146.135 99.772 A 2.055 2.055 0 0 1 146.432 99.434 A 1.589 1.589 0 0 1 146.821 99.174 A 1.912 1.912 0 0 1 147.369 99.014 A 2.475 2.475 0 0 1 147.718 98.99 A 2.34 2.34 0 0 1 148.379 99.078 A 1.73 1.73 0 0 1 149.265 99.675 Q 149.81 100.361 149.81 101.598 A 4.477 4.477 0 0 1 149.751 102.351 Q 149.629 103.065 149.256 103.528 Q 148.702 104.215 147.718 104.215 Q 147.225 104.215 146.818 104.034 A 1.691 1.691 0 0 1 146.135 103.475 Z M 138.675 103.493 L 138.675 104.077 A 0.751 0.751 0 0 1 138.586 104.113 Q 138.475 104.149 138.309 104.176 Q 138.084 104.213 137.9 104.215 A 1.957 1.957 0 0 1 137.874 104.215 Q 136.708 104.215 136.472 103.235 A 2.4 2.4 0 0 1 136.412 102.674 L 136.412 99.675 L 135.69 99.675 L 135.69 99.307 L 136.412 98.99 L 136.734 97.914 L 137.175 97.914 L 137.175 99.082 L 138.638 99.082 L 138.638 99.675 L 137.175 99.675 L 137.175 102.642 A 1.537 1.537 0 0 0 137.197 102.912 Q 137.224 103.06 137.282 103.178 A 0.741 0.741 0 0 0 137.391 103.341 A 0.709 0.709 0 0 0 137.827 103.573 A 1.021 1.021 0 0 0 137.985 103.585 A 2.508 2.508 0 0 0 138.352 103.559 A 2.311 2.311 0 0 0 138.376 103.555 A 4.131 4.131 0 0 0 138.486 103.536 Q 138.591 103.517 138.664 103.496 A 1.148 1.148 0 0 0 138.675 103.493 Z M 143.963 102.365 A 3.944 3.944 0 0 0 144.033 101.598 A 4.481 4.481 0 0 0 144.032 101.477 Q 144.02 101.057 143.929 100.701 A 2.378 2.378 0 0 0 143.41 99.694 Q 142.787 98.99 141.729 98.99 A 2.965 2.965 0 0 0 141.196 99.036 A 2.02 2.02 0 0 0 140.018 99.678 Q 139.608 100.134 139.471 100.831 A 3.964 3.964 0 0 0 139.401 101.598 Q 139.401 102.394 139.687 102.987 A 2.51 2.51 0 0 0 139.742 103.096 A 2.067 2.067 0 0 0 140.496 103.898 Q 141.021 104.215 141.697 104.215 A 2.965 2.965 0 0 0 142.214 104.172 A 2.036 2.036 0 0 0 143.412 103.523 Q 143.825 103.063 143.963 102.365 Z M 140.193 101.598 Q 140.193 102.564 140.579 103.07 A 1.251 1.251 0 0 0 141.394 103.55 A 1.896 1.896 0 0 0 141.715 103.576 A 1.773 1.773 0 0 0 142.183 103.518 A 1.234 1.234 0 0 0 142.853 103.072 Q 143.142 102.698 143.217 102.065 A 4.022 4.022 0 0 0 143.242 101.598 Q 143.242 100.981 143.082 100.555 A 1.572 1.572 0 0 0 142.853 100.138 Q 142.465 99.639 141.706 99.639 A 1.817 1.817 0 0 0 141.253 99.692 A 1.216 1.216 0 0 0 140.574 100.131 A 1.579 1.579 0 0 0 140.329 100.605 Q 140.193 101.015 140.193 101.598 Z M 146.135 101.428 L 146.135 101.598 A 5.048 5.048 0 0 0 146.16 102.12 Q 146.229 102.782 146.489 103.118 A 1.108 1.108 0 0 0 147.051 103.497 Q 147.302 103.576 147.626 103.576 Q 148.279 103.576 148.649 103.047 A 1.846 1.846 0 0 0 148.902 102.507 Q 148.975 102.26 149.003 101.963 A 4.068 4.068 0 0 0 149.019 101.589 Q 149.019 100.646 148.649 100.142 A 1.188 1.188 0 0 0 147.78 99.647 A 1.643 1.643 0 0 0 147.607 99.639 A 2.2 2.2 0 0 0 147.196 99.674 Q 146.735 99.762 146.489 100.066 A 1.308 1.308 0 0 0 146.285 100.439 Q 146.155 100.791 146.138 101.311 A 4.86 4.86 0 0 0 146.135 101.428 Z" id="top_labelLayer" stroke="#777777" fill="#777777" style="stroke:#777777;fill:#777777" vector-effect="non-scaling-stroke"/><path d="M 0 82.4 L 0 91.85 L 3 91.85 L 3 97.85 L 0 97.85 L 0 103.85 L 0 107.3 L 8.55 107.3 L 8.55 104.3 L 14.55 104.3 L 14.55 107.3 L 20.55 107.3 L 20.55 104.3 L 26.55 104.3 L 26.55 107.3 L 32.55 107.3 L 32.55 104.3 L 38.55 104.3 L 38.55 107.3 L 44.55 107.3 L 47.1 107.3 L 47.1 97.85 L 44.1 97.85 L 44.1 91.85 L 47.1 91.85 L 47.1 85.85 L 47.1 82.4 L 38.55 82.4 L 38.55 85.4 L 32.55 85.4 L 32.55 82.4 L 26.55 82.4 L 26.55 85.4 L 20.55 85.4 L 20.55 82.4 L 14.55 82.4 L 14.55 85.4 L 8.55 85.4 L 8.55 82.4 L 2.55 82.4 L 0 82.4 Z" id="back_outsideCutPath" stroke="#FF0000" stroke-width="0.1" style="stroke:#FF0000;stroke-width:0.1" vector-effect="non-scaling-stroke"/><path d="M 26.959 95.353 L 26.979 95.353 A 2.389 2.389 0 0 1 27.038 95.273 Q 27.106 95.185 27.203 95.072 A 8.674 8.674 0 0 1 27.297 94.964 L 28.158 94.052 L 28.637 94.052 L 27.557 95.188 L 28.712 96.717 L 28.224 96.717 L 27.283 95.458 L 26.979 95.72 L 26.979 96.717 L 26.58 96.717 L 26.58 92.934 L 26.979 92.934 L 26.979 94.94 A 2.69 2.69 0 0 1 26.977 95.016 Q 26.974 95.141 26.96 95.343 A 16.67 16.67 0 0 1 26.959 95.353 Z M 18.791 96.375 L 18.762 96.375 L 18.677 96.717 L 18.388 96.717 L 18.388 92.934 L 18.791 92.934 L 18.791 93.853 Q 18.791 94.162 18.772 94.407 L 18.791 94.407 Q 19.073 94.009 19.628 94.009 A 1.234 1.234 0 0 1 19.975 94.055 A 0.924 0.924 0 0 1 20.444 94.367 Q 20.734 94.726 20.734 95.383 Q 20.734 96.039 20.441 96.403 A 0.956 0.956 0 0 1 19.762 96.76 A 1.369 1.369 0 0 1 19.628 96.766 A 1.224 1.224 0 0 1 19.32 96.729 A 1.065 1.065 0 0 1 19.152 96.67 A 0.894 0.894 0 0 1 18.791 96.375 Z M 23.377 96.717 L 23.078 96.717 L 22.998 96.338 L 22.979 96.338 A 1.673 1.673 0 0 1 22.843 96.49 Q 22.77 96.561 22.698 96.611 A 0.744 0.744 0 0 1 22.581 96.677 Q 22.383 96.766 22.086 96.766 Q 21.769 96.766 21.562 96.635 A 0.695 0.695 0 0 1 21.465 96.562 A 0.663 0.663 0 0 1 21.265 96.212 A 1.016 1.016 0 0 1 21.24 95.981 A 0.698 0.698 0 0 1 21.637 95.322 Q 21.933 95.164 22.449 95.138 A 3.943 3.943 0 0 1 22.531 95.134 L 22.983 95.12 L 22.983 94.955 A 1.159 1.159 0 0 0 22.972 94.787 Q 22.96 94.701 22.933 94.632 A 0.45 0.45 0 0 0 22.848 94.491 A 0.41 0.41 0 0 0 22.681 94.382 Q 22.613 94.357 22.53 94.348 A 0.997 0.997 0 0 0 22.417 94.342 A 1.314 1.314 0 0 0 22.114 94.379 Q 21.976 94.412 21.825 94.474 A 2.703 2.703 0 0 0 21.663 94.546 L 21.539 94.237 A 1.861 1.861 0 0 1 21.898 94.09 A 2.118 2.118 0 0 1 21.971 94.069 Q 22.205 94.009 22.441 94.009 A 1.705 1.705 0 0 1 22.701 94.027 Q 22.834 94.048 22.941 94.091 A 0.687 0.687 0 0 1 23.148 94.22 Q 23.328 94.386 23.367 94.709 A 1.588 1.588 0 0 1 23.377 94.899 L 23.377 96.717 Z M 25.987 94.142 L 25.862 94.485 A 1.796 1.796 0 0 0 25.668 94.42 A 2.144 2.144 0 0 0 25.571 94.396 A 1.667 1.667 0 0 0 25.444 94.373 Q 25.361 94.361 25.291 94.361 A 0.895 0.895 0 0 0 24.927 94.43 Q 24.546 94.598 24.489 95.178 A 2.23 2.23 0 0 0 24.479 95.397 Q 24.479 95.719 24.564 95.943 A 0.837 0.837 0 0 0 24.677 96.151 A 0.641 0.641 0 0 0 25.092 96.399 A 0.977 0.977 0 0 0 25.264 96.414 A 1.69 1.69 0 0 0 25.73 96.346 A 2.086 2.086 0 0 0 25.948 96.27 L 25.948 96.628 Q 25.718 96.747 25.386 96.763 A 2.214 2.214 0 0 1 25.274 96.766 A 1.509 1.509 0 0 1 24.907 96.724 A 1.023 1.023 0 0 1 24.378 96.41 Q 24.104 96.102 24.067 95.574 A 2.441 2.441 0 0 1 24.061 95.402 Q 24.061 94.918 24.23 94.593 A 1.113 1.113 0 0 1 24.383 94.369 A 1.045 1.045 0 0 1 24.955 94.039 A 1.585 1.585 0 0 1 25.301 94.004 A 1.822 1.822 0 0 1 25.685 94.045 A 2.015 2.015 0 0 1 25.797 94.072 Q 25.911 94.104 25.987 94.142 Z M 19.13 94.447 A 0.537 0.537 0 0 0 18.974 94.584 Q 18.813 94.792 18.794 95.251 A 3.11 3.11 0 0 0 18.791 95.383 A 2.669 2.669 0 0 0 18.804 95.658 Q 18.834 95.937 18.926 96.106 A 0.609 0.609 0 0 0 18.979 96.186 Q 19.166 96.428 19.579 96.428 A 0.805 0.805 0 0 0 19.808 96.398 A 0.581 0.581 0 0 0 20.134 96.157 Q 20.264 95.963 20.301 95.649 A 2.313 2.313 0 0 0 20.316 95.378 A 2.385 2.385 0 0 0 20.301 95.106 Q 20.265 94.785 20.134 94.602 A 0.589 0.589 0 0 0 19.759 94.365 A 0.934 0.934 0 0 0 19.569 94.347 Q 19.301 94.347 19.13 94.447 Z M 22.974 95.648 L 22.974 95.407 L 22.57 95.424 A 2.964 2.964 0 0 0 22.333 95.441 Q 22.1 95.468 21.953 95.533 A 0.62 0.62 0 0 0 21.876 95.573 A 0.431 0.431 0 0 0 21.671 95.886 A 0.638 0.638 0 0 0 21.663 95.986 A 0.577 0.577 0 0 0 21.677 96.118 Q 21.701 96.22 21.766 96.29 A 0.36 0.36 0 0 0 21.796 96.319 Q 21.91 96.417 22.103 96.431 A 0.908 0.908 0 0 0 22.166 96.433 A 1.111 1.111 0 0 0 22.406 96.409 Q 22.617 96.362 22.759 96.226 A 0.676 0.676 0 0 0 22.947 95.889 Q 22.973 95.78 22.974 95.652 A 1.3 1.3 0 0 0 22.974 95.648 Z" id="back_labelLayer" stroke="#777777" fill="#777777" style="stroke:#777777;fill:#777777" vector-effect="non-scaling-stroke"/><path d="M 53.1 82.4 L 53.1 91.85 L 50.1 91.85 L 50.1 97.85 L 53.1 97.85 L 53.1 103.85 L 53.1 107.3 L 56.15 107.3 L 56.15 104.3 L 62.15 104.3 L 62.15 107.3 L 68.15 107.3 L 68.15 104.3 L 74.15 104.3 L 74.15 107.3 L 80.15 107.3 L 80.15 104.3 L 86.15 104.3 L 86.15 107.3 L 92.15 107.3 L 92.15 104.3 L 98.15 104.3 L 98.15 107.3 L 104.15 107.3 L 104.15 104.3 L 110.15 104.3 L 110.15 107.3 L 113.2 107.3 L 113.2 97.85 L 116.2 97.85 L 116.2 91.85 L 113.2 91.85 L 113.2 85.85 L 113.2 82.4 L 110.15 82.4 L 110.15 85.4 L 104.15 85.4 L 104.15 82.4 L 98.15 82.4 L 98.15 85.4 L 92.15 85.4 L 92.15 82.4 L 86.15 82.4 L 86.15 85.4 L 80.15 85.4 L 80.15 82.4 L 74.15 82.4 L 74.15 85.4 L 68.15 85.4 L 68.15 82.4 L 62.15 82.4 L 62.15 85.4 L 56.15 85.4 L 56.15 82.4 L 53.1 82.4 Z" id="right_outsideCutPath" stroke="#FF0000" stroke-width="0.1" style="stroke:#FF0000;stroke-width:0.1" vector-effect="non-scaling-stroke"/><path d="M 86.247 96.144 L 85.843 96.144 L 85.843 94.42 A 1.141 1.141 0 0 0 85.83 94.241 Q 85.815 94.146 85.783 94.071 A 0.48 0.48 0 0 0 85.695 93.933 A 0.455 0.455 0 0 0 85.508 93.814 Q 85.391 93.773 85.23 93.773 A 1.222 1.222 0 0 0 85.002 93.793 Q 84.753 93.84 84.616 94.001 A 0.672 0.672 0 0 0 84.502 94.203 Q 84.434 94.388 84.424 94.663 A 2.605 2.605 0 0 0 84.423 94.75 L 84.423 96.144 L 84.019 96.144 L 84.019 92.36 L 84.423 92.36 L 84.423 93.505 A 3.631 3.631 0 0 1 84.42 93.645 Q 84.418 93.71 84.413 93.766 A 1.579 1.579 0 0 1 84.404 93.848 L 84.428 93.848 A 0.806 0.806 0 0 1 84.71 93.576 A 0.985 0.985 0 0 1 84.767 93.545 A 1.036 1.036 0 0 1 85.107 93.445 A 1.31 1.31 0 0 1 85.269 93.435 Q 85.758 93.435 86.002 93.667 Q 86.247 93.899 86.247 94.405 L 86.247 96.144 Z M 82.551 93.479 L 83.472 93.479 L 83.472 93.734 L 82.979 93.792 Q 83.036 93.864 83.083 93.973 A 1.244 1.244 0 0 1 83.1 94.015 A 0.777 0.777 0 0 1 83.146 94.2 A 0.997 0.997 0 0 1 83.154 94.325 A 0.925 0.925 0 0 1 83.111 94.612 A 0.748 0.748 0 0 1 82.886 94.95 Q 82.619 95.183 82.152 95.183 A 1.297 1.297 0 0 1 82.002 95.175 A 1.095 1.095 0 0 1 81.928 95.164 Q 81.67 95.3 81.67 95.507 A 0.209 0.209 0 0 0 81.681 95.575 Q 81.7 95.631 81.755 95.665 A 0.224 0.224 0 0 0 81.76 95.668 Q 81.833 95.71 81.989 95.719 A 1.536 1.536 0 0 0 82.069 95.721 L 82.541 95.721 Q 82.974 95.721 83.206 95.903 A 0.591 0.591 0 0 1 83.425 96.279 A 0.887 0.887 0 0 1 83.438 96.433 Q 83.438 96.867 83.097 97.099 A 0.958 0.958 0 0 1 83.083 97.108 A 1.211 1.211 0 0 1 82.771 97.249 Q 82.617 97.296 82.43 97.319 A 3.199 3.199 0 0 1 82.047 97.34 A 2.262 2.262 0 0 1 81.744 97.321 Q 81.436 97.279 81.241 97.145 A 0.643 0.643 0 0 1 81.034 96.92 Q 80.967 96.797 80.959 96.641 A 0.852 0.852 0 0 1 80.958 96.596 Q 80.958 96.353 81.114 96.175 A 0.705 0.705 0 0 1 81.356 95.999 A 0.999 0.999 0 0 1 81.551 95.934 A 0.419 0.419 0 0 1 81.389 95.803 A 0.497 0.497 0 0 1 81.38 95.791 A 0.374 0.374 0 0 1 81.311 95.589 A 0.463 0.463 0 0 1 81.31 95.565 A 0.462 0.462 0 0 1 81.334 95.416 A 0.409 0.409 0 0 1 81.388 95.31 A 0.578 0.578 0 0 1 81.465 95.224 Q 81.533 95.159 81.634 95.098 A 0.708 0.708 0 0 1 81.326 94.852 A 0.877 0.877 0 0 1 81.297 94.809 A 0.834 0.834 0 0 1 81.169 94.407 A 1.018 1.018 0 0 1 81.167 94.342 A 1.166 1.166 0 0 1 81.198 94.066 A 0.767 0.767 0 0 1 81.43 93.667 A 0.857 0.857 0 0 1 81.759 93.486 Q 81.94 93.43 82.174 93.43 A 1.547 1.547 0 0 1 82.378 93.443 A 1.178 1.178 0 0 1 82.551 93.479 Z M 88.301 95.81 L 88.301 96.119 Q 88.236 96.151 88.108 96.172 Q 87.989 96.191 87.892 96.192 A 1.034 1.034 0 0 1 87.878 96.192 A 1.054 1.054 0 0 1 87.568 96.15 Q 87.226 96.045 87.137 95.674 A 1.269 1.269 0 0 1 87.105 95.378 L 87.105 93.792 L 86.723 93.792 L 86.723 93.598 L 87.105 93.43 L 87.275 92.861 L 87.509 92.861 L 87.509 93.479 L 88.282 93.479 L 88.282 93.792 L 87.509 93.792 L 87.509 95.361 A 0.813 0.813 0 0 0 87.52 95.503 Q 87.534 95.582 87.565 95.644 A 0.392 0.392 0 0 0 87.623 95.73 Q 87.737 95.859 87.937 95.859 A 1.326 1.326 0 0 0 88.131 95.845 A 1.225 1.225 0 0 0 88.143 95.843 A 2.183 2.183 0 0 0 88.202 95.833 Q 88.257 95.823 88.296 95.812 A 0.608 0.608 0 0 0 88.301 95.81 Z M 79.533 93.459 L 79.477 93.834 Q 79.339 93.803 79.229 93.798 A 0.947 0.947 0 0 0 79.185 93.797 A 0.699 0.699 0 0 0 78.668 94.02 A 0.957 0.957 0 0 0 78.632 94.06 Q 78.402 94.322 78.402 94.714 L 78.402 96.144 L 77.999 96.144 L 77.999 93.479 L 78.332 93.479 L 78.378 93.972 L 78.397 93.972 A 1.363 1.363 0 0 1 78.55 93.754 A 1.041 1.041 0 0 1 78.755 93.571 Q 78.964 93.43 79.214 93.43 Q 79.392 93.43 79.533 93.459 Z M 80.435 93.479 L 80.435 96.144 L 80.031 96.144 L 80.031 93.479 L 80.435 93.479 Z M 82.412 96.083 L 81.928 96.083 A 0.928 0.928 0 0 0 81.761 96.097 Q 81.603 96.126 81.5 96.214 A 0.425 0.425 0 0 0 81.36 96.455 A 0.646 0.646 0 0 0 81.347 96.591 A 0.405 0.405 0 0 0 81.374 96.741 Q 81.417 96.85 81.529 96.919 A 0.646 0.646 0 0 0 81.688 96.987 Q 81.838 97.031 82.049 97.031 A 1.967 1.967 0 0 0 82.052 97.031 A 2.714 2.714 0 0 0 82.317 97.019 Q 82.583 96.993 82.75 96.91 A 0.67 0.67 0 0 0 82.805 96.879 A 0.589 0.589 0 0 0 82.941 96.765 A 0.441 0.441 0 0 0 83.049 96.467 A 0.546 0.546 0 0 0 83.039 96.359 Q 83.013 96.228 82.915 96.167 Q 82.782 96.083 82.412 96.083 Z M 81.566 94.332 A 0.788 0.788 0 0 0 81.582 94.497 Q 81.616 94.658 81.724 94.755 Q 81.866 94.884 82.109 94.897 A 1.039 1.039 0 0 0 82.164 94.899 A 0.879 0.879 0 0 0 82.394 94.871 Q 82.658 94.8 82.729 94.541 A 0.818 0.818 0 0 0 82.755 94.325 A 0.868 0.868 0 0 0 82.725 94.087 Q 82.649 93.821 82.378 93.75 A 0.878 0.878 0 0 0 82.157 93.724 A 0.847 0.847 0 0 0 81.984 93.741 Q 81.822 93.774 81.719 93.877 Q 81.589 94.007 81.569 94.244 A 1.062 1.062 0 0 0 81.566 94.332 Z M 79.997 92.756 Q 79.997 92.618 80.065 92.553 A 0.233 0.233 0 0 1 80.215 92.49 A 0.308 0.308 0 0 1 80.236 92.489 A 0.238 0.238 0 0 1 80.403 92.555 Q 80.474 92.62 80.474 92.756 A 0.418 0.418 0 0 1 80.467 92.833 Q 80.459 92.875 80.442 92.908 A 0.197 0.197 0 0 1 80.403 92.959 Q 80.333 93.026 80.236 93.026 A 0.256 0.256 0 0 1 80.147 93.012 A 0.226 0.226 0 0 1 80.065 92.959 Q 80.009 92.904 79.999 92.802 A 0.477 0.477 0 0 1 79.997 92.756 Z" id="right_labelLayer" stroke="#777777" fill="#777777" style="stroke:#777777;fill:#777777" vector-effect="non-scaling-stroke"/><path d="M 122.2 3 L 122.2 6.05 L 119.2 6.05 L 119.2 12.05 L 122.2 12.05 L 122.2 18.05 L 119.2 18.05 L 119.2 24.05 L 122.2 24.05 L 122.2 30.05 L 119.2 30.05 L 119.2 36.05 L 122.2 36.05 L 122.2 42.05 L 119.2 42.05 L 119.2 48.05 L 122.2 48.05 L 122.2 54.05 L 119.2 54.05 L 119.2 60.05 L 122.2 60.05 L 122.2 63.1 L 127.75 63.1 L 127.75 66.1 L 133.75 66.1 L 133.75 63.1 L 139.75 63.1 L 139.75 66.1 L 145.75 66.1 L 145.75 63.1 L 151.75 63.1 L 151.75 66.1 L 157.75 66.1 L 157.75 63.1 L 163.75 63.1 L 163.3 63.1 L 163.3 60.05 L 166.3 60.05 L 166.3 54.05 L 163.3 54.05 L 163.3 48.05 L 166.3 48.05 L 166.3 42.05 L 163.3 42.05 L 163.3 36.05 L 166.3 36.05 L 166.3 30.05 L 163.3 30.05 L 163.3 24.05 L 166.3 24.05 L 166.3 18.05 L 163.3 18.05 L 163.3 12.05 L 166.3 12.05 L 166.3 6.05 L 163.3 6.05 L 163.3 3 L 157.75 3 L 157.75 0 L 151.75 0 L 151.75 3 L 145.75 3 L 145.75 0 L 139.75 0 L 139.75 3 L 133.75 3 L 133.75 0 L 127.75 0 L 127.75 3 L 121.75 3 L 122.2 3 Z" id="bottom_outsideCutPath" stroke="#FF0000" stroke-width="0.1" style="stroke:#FF0000;stroke-width:0.1" vector-effect="non-scaling-stroke"/><path d="M 158.246 36.582 L 157.483 36.582 L 157.483 33.303 Q 157.483 32.7 157.225 32.399 A 0.803 0.803 0 0 0 156.851 32.158 Q 156.666 32.098 156.425 32.098 A 1.965 1.965 0 0 0 156.025 32.136 Q 155.787 32.185 155.608 32.299 A 1.011 1.011 0 0 0 155.371 32.507 A 1.262 1.262 0 0 0 155.157 32.894 Q 155.032 33.246 155.031 33.76 A 4.263 4.263 0 0 0 155.031 33.767 L 155.031 36.582 L 154.267 36.582 L 154.267 33.303 Q 154.267 32.7 154.01 32.399 A 0.801 0.801 0 0 0 153.641 32.16 Q 153.509 32.116 153.347 32.103 A 1.788 1.788 0 0 0 153.205 32.098 A 1.896 1.896 0 0 0 152.813 32.136 Q 152.388 32.225 152.154 32.528 A 1.28 1.28 0 0 0 151.964 32.888 Q 151.841 33.237 151.823 33.759 A 5.316 5.316 0 0 0 151.82 33.938 L 151.82 36.582 L 151.057 36.582 L 151.057 31.541 L 151.678 31.541 L 151.802 32.231 L 151.839 32.231 A 1.501 1.501 0 0 1 152.448 31.656 Q 152.842 31.449 153.329 31.449 Q 154.511 31.449 154.875 32.305 L 154.911 32.305 A 1.594 1.594 0 0 1 155.512 31.709 A 1.916 1.916 0 0 1 155.564 31.679 A 1.932 1.932 0 0 1 156.273 31.464 A 2.41 2.41 0 0 1 156.54 31.449 A 2.654 2.654 0 0 1 157.021 31.49 Q 157.289 31.539 157.498 31.649 A 1.258 1.258 0 0 1 157.821 31.888 Q 158.13 32.208 158.215 32.807 A 3.502 3.502 0 0 1 158.246 33.294 L 158.246 36.582 Z M 128.017 35.934 L 127.962 35.934 L 127.801 36.582 L 127.254 36.582 L 127.254 29.425 L 128.017 29.425 L 128.017 31.164 A 15.919 15.919 0 0 1 128.009 31.702 Q 128 31.956 127.983 32.183 A 9.571 9.571 0 0 1 127.981 32.213 L 128.017 32.213 A 1.736 1.736 0 0 1 129.285 31.477 A 2.608 2.608 0 0 1 129.6 31.458 A 2.334 2.334 0 0 1 130.256 31.546 A 1.747 1.747 0 0 1 131.143 32.137 Q 131.583 32.68 131.671 33.585 A 4.901 4.901 0 0 1 131.693 34.057 A 4.477 4.477 0 0 1 131.633 34.81 Q 131.511 35.524 131.138 35.987 Q 130.584 36.674 129.6 36.674 Q 129.108 36.674 128.7 36.493 A 1.691 1.691 0 0 1 128.017 35.934 Z M 141.034 35.952 L 141.034 36.536 A 0.751 0.751 0 0 1 140.945 36.572 Q 140.835 36.608 140.669 36.635 Q 140.443 36.672 140.26 36.674 A 1.957 1.957 0 0 1 140.234 36.674 Q 139.067 36.674 138.831 35.694 A 2.4 2.4 0 0 1 138.771 35.134 L 138.771 32.135 L 138.049 32.135 L 138.049 31.767 L 138.771 31.449 L 139.093 30.373 L 139.535 30.373 L 139.535 31.541 L 140.998 31.541 L 140.998 32.135 L 139.535 32.135 L 139.535 35.101 A 1.537 1.537 0 0 0 139.557 35.371 Q 139.584 35.519 139.642 35.637 A 0.741 0.741 0 0 0 139.751 35.8 A 0.709 0.709 0 0 0 140.187 36.033 A 1.021 1.021 0 0 0 140.344 36.044 A 2.508 2.508 0 0 0 140.712 36.018 A 2.311 2.311 0 0 0 140.735 36.014 A 4.131 4.131 0 0 0 140.846 35.995 Q 140.951 35.976 141.024 35.955 A 1.148 1.148 0 0 0 141.034 35.952 Z M 144.36 35.952 L 144.36 36.536 A 0.751 0.751 0 0 1 144.271 36.572 Q 144.16 36.608 143.994 36.635 Q 143.769 36.672 143.585 36.674 A 1.957 1.957 0 0 1 143.56 36.674 Q 142.393 36.674 142.157 35.694 A 2.4 2.4 0 0 1 142.097 35.134 L 142.097 32.135 L 141.375 32.135 L 141.375 31.767 L 142.097 31.449 L 142.419 30.373 L 142.86 30.373 L 142.86 31.541 L 144.323 31.541 L 144.323 32.135 L 142.86 32.135 L 142.86 35.101 A 1.537 1.537 0 0 0 142.883 35.371 Q 142.909 35.519 142.967 35.637 A 0.741 0.741 0 0 0 143.077 35.8 A 0.709 0.709 0 0 0 143.513 36.033 A 1.021 1.021 0 0 0 143.67 36.044 A 2.508 2.508 0 0 0 144.037 36.018 A 2.311 2.311 0 0 0 144.061 36.014 A 4.131 4.131 0 0 0 144.171 35.995 Q 144.276 35.976 144.35 35.955 A 1.148 1.148 0 0 0 144.36 35.952 Z M 137.308 34.824 A 3.944 3.944 0 0 0 137.378 34.057 A 4.481 4.481 0 0 0 137.376 33.936 Q 137.365 33.516 137.274 33.16 A 2.378 2.378 0 0 0 136.754 32.153 Q 136.131 31.449 135.073 31.449 A 2.965 2.965 0 0 0 134.541 31.495 A 2.02 2.02 0 0 0 133.362 32.137 Q 132.953 32.593 132.815 33.29 A 3.964 3.964 0 0 0 132.746 34.057 Q 132.746 34.853 133.031 35.446 A 2.51 2.51 0 0 0 133.087 35.555 A 2.067 2.067 0 0 0 133.841 36.357 Q 134.365 36.674 135.041 36.674 A 2.965 2.965 0 0 0 135.559 36.631 A 2.036 2.036 0 0 0 136.757 35.982 Q 137.169 35.522 137.308 34.824 Z M 149.648 34.824 A 3.944 3.944 0 0 0 149.718 34.057 A 4.481 4.481 0 0 0 149.717 33.936 Q 149.705 33.516 149.615 33.16 A 2.378 2.378 0 0 0 149.095 32.153 Q 148.472 31.449 147.414 31.449 A 2.965 2.965 0 0 0 146.881 31.495 A 2.02 2.02 0 0 0 145.703 32.137 Q 145.294 32.593 145.156 33.29 A 3.964 3.964 0 0 0 145.087 34.057 Q 145.087 34.853 145.372 35.446 A 2.51 2.51 0 0 0 145.427 35.555 A 2.067 2.067 0 0 0 146.181 36.357 Q 146.706 36.674 147.382 36.674 A 2.965 2.965 0 0 0 147.9 36.631 A 2.036 2.036 0 0 0 149.097 35.982 Q 149.51 35.522 149.648 34.824 Z M 133.537 34.057 Q 133.537 35.023 133.923 35.529 A 1.251 1.251 0 0 0 134.738 36.009 A 1.896 1.896 0 0 0 135.059 36.035 A 1.773 1.773 0 0 0 135.527 35.977 A 1.234 1.234 0 0 0 136.198 35.531 Q 136.487 35.157 136.561 34.524 A 4.022 4.022 0 0 0 136.587 34.057 Q 136.587 33.441 136.427 33.014 A 1.572 1.572 0 0 0 136.198 32.597 Q 135.809 32.098 135.05 32.098 A 1.817 1.817 0 0 0 134.598 32.151 A 1.216 1.216 0 0 0 133.919 32.59 A 1.579 1.579 0 0 0 133.673 33.064 Q 133.537 33.474 133.537 34.057 Z M 145.878 34.057 Q 145.878 35.023 146.264 35.529 A 1.251 1.251 0 0 0 147.079 36.009 A 1.896 1.896 0 0 0 147.4 36.035 A 1.773 1.773 0 0 0 147.868 35.977 A 1.234 1.234 0 0 0 148.539 35.531 Q 148.828 35.157 148.902 34.524 A 4.022 4.022 0 0 0 148.927 34.057 Q 148.927 33.441 148.767 33.014 A 1.572 1.572 0 0 0 148.539 32.597 Q 148.15 32.098 147.391 32.098 A 1.817 1.817 0 0 0 146.939 32.151 A 1.216 1.216 0 0 0 146.259 32.59 A 1.579 1.579 0 0 0 146.014 33.064 Q 145.878 33.474 145.878 34.057 Z M 129.489 32.098 Q 128.707 32.098 128.362 32.546 Q 128.059 32.94 128.023 33.808 A 5.883 5.883 0 0 0 128.017 34.057 A 5.048 5.048 0 0 0 128.042 34.579 Q 128.112 35.241 128.372 35.577 A 1.108 1.108 0 0 0 128.934 35.957 Q 129.184 36.035 129.508 36.035 A 1.522 1.522 0 0 0 129.94 35.977 A 1.098 1.098 0 0 0 130.556 35.522 A 1.753 1.753 0 0 0 130.773 35.053 Q 130.841 34.83 130.873 34.561 A 4.375 4.375 0 0 0 130.901 34.048 Q 130.901 33.115 130.591 32.632 A 1.266 1.266 0 0 0 130.556 32.581 A 1.113 1.113 0 0 0 129.848 32.132 A 1.766 1.766 0 0 0 129.489 32.098 Z" id="bottom_labelLayer" stroke="#777777" fill="#777777" style="stroke:#777777;fill:#777777" vector-effect="non-scaling-stroke"/></g></svg>